<svg class="ia-wordmark style-scope primary-nav" height="14" viewBox="0 0 183 14" width="183" xmlns="http://www.w3.org/2000/svg"><g fill="#fff" fill-rule="evenodd" class="style-scope primary-nav"><g transform="translate(107.24177)" class="style-scope primary-nav"><path d="m3.46567087 2.73592273c.09358964-.31350476.26547063-.95793121.26547063-1.08718317 0-.73655285-.57818604-.75488647-1.20271694-.86488814v-.40471447h2.93682509l3.81107838 12.38893815h-1.62387035l-1.17212033-3.82897484h-3.98340931l-1.17167038 3.82897484h-.96784292zm-.7032722 5.33783106h3.4520181l-1.78045302-5.37541496z" class="style-scope primary-nav"></path><path d="m13.7607138 2.88304997c0-1.82281935-.0319465-1.82281935-1.4843858-2.09919855v-.40471447h3.8425749c1.1721204 0 4.4050127 0 4.4050127 3.2954667 0 2.09828187-1.1554722 2.79816749-2.3896856 3.03696279l2.874282 6.05650866h-1.7957513l-2.7649442-5.72512863h-.9687428v5.72512863h-1.7183599zm1.7183599 3.29500836h.8909015c1.0146377 0 2.4364804-.33092169 2.4364804-2.39299467 0-1.98873853-.9687428-2.54103858-2.2812476-2.54103858-1.0461343 0-1.0461343.33138003-1.0461343 1.6573585z" class="style-scope primary-nav"></path><path d="m31.6158204 12.2524422c-.5304913.2768376-1.3903462.6998857-2.9989182.6998857-3.389925 0-4.6083902-2.4113283-4.6083902-6.55334954 0-3.35000921.8742533-6.07530059 4.3582178-6.07530059 1.3903462 0 2.4058839.27592086 3.1240044.55230005l.0940396 3.07500503h-.4530999c-.062543-.9395976-.921948-2.743625-2.6088113-2.743625-2.296096 0-2.6713545 2.88983555-2.6713545 5.19162051 0 2.90816916.8598549 5.52254214 3.0304147 5.52254214 1.4843858 0 2.2497511-.5523 2.7338976-.9386809z" class="style-scope primary-nav"></path><path d="m36.1784975 2.80971552c0-1.45568877-.0935896-1.62114962-1.5626771-1.80448573v-.40563116l3.2805871-.42258975v5.70633665h4.2484299v-5.50420858h1.7183599v12.38893815h-1.7183599v-6.01984144h-4.2484299v6.01984144h-1.71791z" class="style-scope primary-nav"></path><path d="m46.8631973 12.3083598c1.1086774 0 1.3273532-.2759209 1.3273532-1.711901v-7.91645358c0-1.43598014-.2186758-1.71144266-1.3273532-1.71144266v-.46109033h4.3735162v.46109033c-1.093829 0-1.3273532.27546252-1.3273532 1.71144266v7.91645358c0 1.4359801.2335242 1.711901 1.3273532 1.711901v.4597153h-4.3735162z" class="style-scope primary-nav"></path><path d="m56.1269544 2.73592273c-.4998947-1.67569211-.6407291-1.67569211-1.8902409-1.95207131v-.40471447h3.0304147l3.0614614 10.08806985h.0310465l2.9840699-10.08806985h1.0146377l-3.8106284 12.38893815h-1.3588497z" class="style-scope primary-nav"></path><path d="m68.8422796 2.88304997c0-1.82281935-.0467948-1.82281935-1.4839359-2.09919855v-.40471447h7.4826722l.0467949 2.7243747h-.4378016c0-1.47264736-.6555775-1.85948657-1.6868634-1.85948657h-1.2184652c-.7806636 0-.9835912.07333445-.9835912.95747287v3.66351396h1.8902409c1.0767309 0 1.1865187-.80942895 1.2805583-1.41672984h.4369017v3.86518369h-.4369017c0-.9941401-.3437619-1.58356571-1.2805583-1.58356571h-1.8902409v4.10535405c0 1.0308073.2029276 1.0679328.9835912 1.0679328h1.7345581c.8895516 0 1.311155-.3685056 1.4051946-1.8040274h.4378015l-.0476947 2.6689156h-6.2322605z" class="style-scope primary-nav"></path></g><g transform="translate(.24177 .277385)" class="style-scope primary-nav"><path d="m1.57302598 10.3699491v-8.03470531c0-1.45706379-.25962128-1.73802639-1.57302598-1.73802639v-.46659042h5.18252665v.46659042c-1.29540668 0-1.57302597.2809626-1.57302597 1.73802639v8.03470531c0 1.4575222.27761929 1.7366514 1.57302597 1.7366514v.4675071h-5.18252665v-.4675071c1.3134047 0 1.57302598-.2791292 1.57302598-1.7366514z" class="style-scope primary-nav"></path><path d="m10.0331719 2.39116131c0-1.73756805-.25872136-1.66240024-1.85064525-1.98003007v-.41113124h3.90556795l5.830455 10.1641543h.0368959v-10.1641543h1.1662709v12.5741076h-1.7773033l-6.1076243-10.63028642h-.0373459v10.63028642h-1.166271z" class="style-scope primary-nav"></path><path d="m25.9161467.87818h-1.2774087c-1.4618883 0-1.8875412.46704876-1.9991288 1.83198615h-.5178928l.0737919-2.71016615h9.4768516l.0742417 2.76562533h-.5183426c0-1.43873018-.5925845-1.88744533-2.0175768-1.88744533h-1.2580608v11.6959276h-2.0364747z" class="style-scope primary-nav"></path><path d="m36.505907 2.54103859c0-1.84986143-.0562438-1.84986143-1.7593054-2.12990735v-.41113124h8.8658192l.0557938 2.76562533h-.5183426c0-1.49510604-.777064-1.88744533-1.9982289-1.88744533h-1.4443403c-.9255476 0-1.1662709.07516781-1.1662709.97213976v3.71805646h2.2398522c1.2769587 0 1.4060944-.82272082 1.5176821-1.43964686h.5187926v3.92430959h-.5187926c0-1.00880698-.406755-1.60648273-1.5176821-1.60648273h-2.2398522v4.16631328c0 1.0463909.2407233 1.0830581 1.1662709 1.0830581h2.0544728c1.0555832 0 1.554578-.3735473 1.6652657-1.83061113h.5192426l-.0557938 2.70879113h-7.3845831z" class="style-scope primary-nav"></path><path d="m48.7037894 2.54103859c0-1.84986143-.0368959-1.84986143-1.7575055-2.12990735v-.41113124h4.5525963c1.3885464 0 5.2194226 0 5.2194226 3.34450912 0 2.13036568-1.3687486 2.8403348-2.8315368 3.08325515l3.4056733 6.14634333h-2.1287145l-3.2756376-5.81083823h-1.1478231v5.81083823h-2.0364747zm2.0364747 3.34405077h1.0555833c1.202267 0 2.8873305-.33550509 2.8873305-2.42782853 0-2.01898899-1.147823-2.57908083-2.7028509-2.57908083-1.2400629 0-1.2400629.33596344-1.2400629 1.68256722z" class="style-scope primary-nav"></path><path d="m62.1435345 2.39116131c0-1.73756805-.2596213-1.66240024-1.8510952-1.98003007v-.41113124h3.905118l5.830005 10.1641543h.0373458v-10.1641543h1.166271v12.5741076h-1.7764035l-6.1085242-10.63028642h-.0368959v10.63028642h-1.165821z" class="style-scope primary-nav"></path><path d="m75.9895846 2.54103859c0-1.84986143-.0553439-1.84986143-1.7584055-2.12990735v-.41113124h8.8658192l.0557938 2.76562533h-.5183426c0-1.49510604-.777964-1.88744533-1.9991289-1.88744533h-1.4438902c-.9250977 0-1.1658211.07516781-1.1658211.97213976v3.71805646h2.2394023c1.2774087 0 1.4060944-.82272082 1.5176821-1.43964686h.5187926v3.92430959h-.5187926c0-1.00880698-.406755-1.60648273-1.5176821-1.60648273h-2.2394023v4.16631328c0 1.0463909.2407234 1.0830581 1.1658211 1.0830581h2.0544727c1.0555832 0 1.5550279-.3735473 1.6661657-1.83061113h.5183426l-.0557938 2.70879113h-7.385033z" class="style-scope primary-nav"></path><path d="m90.2243917.87818h-1.2765088c-1.4623382 0-1.8879911.46704876-1.9995788 1.83198615h-.5178927l.0742418-2.71016615h9.4759517l.0742418 2.76562533h-.5178928c0-1.43873018-.5921344-1.88744533-2.0180267-1.88744533h-1.2585108v11.6959276h-2.0360247z" class="style-scope primary-nav"></path></g></g></svg>
